# xmcd
#
# Track frame offsets: 
#        150
#        18562
#        40702
#        57744
#        77869
#        94334
#        112936
#        129744
#        148228
#        166865
#        183373
#        199126
#
# Disc length: 2887 seconds
#
# Revision: 0
# Processed by: cddbd v1.5.1PL2 Copyright (c) Steve Scherf et al.
# Submitted via: ExactAudioCopy v0.95b4
#
DISCID=aa0b450c
DTITLE=ร็อคออนชอน - โจ๊ะ โจ๊ะ 2 บักไว้หน้าแข้ง-ปอบผู้ใด๋
DYEAR=2006
DGENRE=Country
TTITLE0=บักไว้หน้าแข้ง
TTITLE1=ปอบผู้ได๋
TTITLE2=ยึดมือถือ
TTITLE3=สาวแวง
TTITLE4=ร็อคลำซิ่ง
TTITLE5=อ้ายลืมเจ้าแล้ว
TTITLE6=เว้าพื้นเมีย
TTITLE7=เต้ยรักสาวเหนือ
TTITLE8=ปิดไฟซะเนาะ
TTITLE9=หัวใจพัง
TTITLE10=วิเวกวิโหวเหว
TTITLE11=หมอเบิ๊ดบ้าน
EXTD=
EXTT0=
EXTT1=
EXTT2=
EXTT3=
EXTT4=
EXTT5=
EXTT6=
EXTT7=
EXTT8=
EXTT9=
EXTT10=
EXTT11=
PLAYORDER=
